<svg width="16" height="16" xmlns="http://www.w3.org/2000/svg">
 <title/>

 <g>
  <title>background</title>
  <rect fill="none" id="canvas_background" height="402" width="582" y="-1" x="-1"/>
 </g>
 <g>
  <title>Layer 1</title>
  <path fill="#e84118" id="Oval 288" d="m8,14c1.40205,0 2.69179,-0.4809 3.71325,-1.28675l-8.4265,-8.4265c-0.80585,1.02146 -1.28675,2.3112 -1.28675,3.71325c0,3.31371 2.68629,6 6,6zm4.71325,-2.28675c0.80585,-1.02146 1.28675,-2.3112 1.28675,-3.71325c0,-3.31371 -2.68629,-6 -6,-6c-1.40205,0 -2.69179,0.4809 -3.71325,1.28675l8.4265,8.4265zm-4.71325,4.28675c-4.41828,0 -8,-3.58172 -8,-8c0,-4.41828 3.58172,-8 8,-8c4.41828,0 8,3.58172 8,8c0,4.41828 -3.58172,8 -8,8zm0,0"/>
 </g>
</svg>